<?xml version="1.0" encoding="utf-8"?>
<!-- Generator: Adobe Illustrator 16.0.0, SVG Export Plug-In . SVG Version: 6.00 Build 0)  -->
<!DOCTYPE svg PUBLIC "-//W3C//DTD SVG 1.1//EN" "http://www.w3.org/Graphics/SVG/1.1/DTD/svg11.dtd">
<svg version="1.1" id="Layer_1" xmlns="http://www.w3.org/2000/svg" xmlns:xlink="http://www.w3.org/1999/xlink" x="0px" y="0px"
	 width="393.958px" height="287.054px" viewBox="0 0 393.958 287.054" enable-background="new 0 0 393.958 287.054"
	 xml:space="preserve">
<g opacity="0.25">
	<g>
		<defs>
			<rect id="SVGID_1_" width="393.958" height="287.054"/>
		</defs>
		<clipPath id="SVGID_2_">
			<use xlink:href="#SVGID_1_"  overflow="visible"/>
		</clipPath>
		<g opacity="0.25" clip-path="url(#SVGID_2_)">
			<g>
				<defs>
					<rect id="SVGID_3_" width="393.958" height="287.054"/>
				</defs>
				<clipPath id="SVGID_4_">
					<use xlink:href="#SVGID_3_"  overflow="visible"/>
				</clipPath>
				<rect y="-0.001" clip-path="url(#SVGID_4_)" fill="#FDEF49" width="393.958" height="287.055"/>
			</g>
		</g>
	</g>
</g>
<g>
	<g>
		<defs>
			<rect id="SVGID_5_" x="189.365" y="87.867" width="15.229" height="15.228"/>
		</defs>
		<clipPath id="SVGID_6_">
			<use xlink:href="#SVGID_5_"  overflow="visible"/>
		</clipPath>
		
			<circle clip-path="url(#SVGID_6_)" fill="none" stroke="#EBEEA7" stroke-width="1.228" stroke-miterlimit="10" cx="196.978" cy="95.481" r="7"/>
	</g>
</g>
<g>
	<g>
		<defs>
			<rect id="SVGID_7_" x="83.988" y="61.192" width="24.577" height="24.577"/>
		</defs>
		<clipPath id="SVGID_8_">
			<use xlink:href="#SVGID_7_"  overflow="visible"/>
		</clipPath>
		
			<circle clip-path="url(#SVGID_8_)" fill="none" stroke="#EBEEA7" stroke-width="1.228" stroke-miterlimit="10" cx="96.277" cy="73.481" r="11.675"/>
	</g>
</g>
<g>
	<g>
		<defs>
			<rect id="SVGID_9_" x="235.455" y="179.042" width="48.877" height="48.878"/>
		</defs>
		<clipPath id="SVGID_10_">
			<use xlink:href="#SVGID_9_"  overflow="visible"/>
		</clipPath>
		
			<circle clip-path="url(#SVGID_10_)" fill="none" stroke="#EBEEA7" stroke-width="1.228" stroke-miterlimit="10" cx="259.893" cy="203.481" r="23.825"/>
	</g>
</g>
<g>
	<g>
		<defs>
			<rect id="SVGID_11_" x="314.822" y="41.768" width="26.01" height="26.008"/>
		</defs>
		<clipPath id="SVGID_12_">
			<use xlink:href="#SVGID_11_"  overflow="visible"/>
		</clipPath>
		
			<circle clip-path="url(#SVGID_12_)" fill="none" stroke="#EBEEA7" stroke-width="0.654" stroke-miterlimit="10" cx="327.826" cy="54.771" r="12.677"/>
	</g>
</g>
<g>
	<g>
		<defs>
			<rect id="SVGID_13_" x="323.179" y="191.356" width="26.009" height="26.01"/>
		</defs>
		<clipPath id="SVGID_14_">
			<use xlink:href="#SVGID_13_"  overflow="visible"/>
		</clipPath>
		
			<circle clip-path="url(#SVGID_14_)" fill="none" stroke="#EBEEA7" stroke-width="0.654" stroke-miterlimit="10" cx="336.184" cy="204.361" r="12.678"/>
	</g>
</g>
<g>
	<g>
		<defs>
			<rect id="SVGID_15_" x="288.964" y="104.665" width="30.074" height="30.074"/>
		</defs>
		<clipPath id="SVGID_16_">
			<use xlink:href="#SVGID_15_"  overflow="visible"/>
		</clipPath>
		
			<circle clip-path="url(#SVGID_16_)" fill="none" stroke="#EBEEA7" stroke-width="1.228" stroke-miterlimit="10" cx="304.002" cy="119.702" r="14.422"/>
	</g>
</g>
<circle fill="none" stroke="#FFFFFF" stroke-width="1.467" stroke-miterlimit="10" cx="349.739" cy="31.827" r="10.267"/>
<circle fill="none" stroke="#FFFFFF" stroke-width="1.057" stroke-miterlimit="10" cx="264.568" cy="105.279" r="7.398"/>
<circle fill="none" stroke="#FFFFFF" stroke-width="1.057" stroke-miterlimit="10" cx="153.545" cy="191.684" r="7.398"/>
<circle fill="none" stroke="#FFFFFF" stroke-width="1.057" stroke-miterlimit="10" cx="59.568" cy="119.702" r="7.398"/>
<circle fill="none" stroke="#FFFFFF" stroke-width="1.057" stroke-miterlimit="10" cx="97.487" cy="237.573" r="7.398"/>
<path fill="#FFFFFF" d="M257.169,199.083c0,4.086-3.312,7.397-7.399,7.397c-4.086,0-7.397-3.312-7.397-7.397
	s3.312-7.399,7.397-7.399C253.857,191.684,257.169,194.997,257.169,199.083"/>
<path fill="#FFFFFF" d="M97.475,71.481c0,2.318-1.88,4.197-4.198,4.197c-2.319,0-4.199-1.879-4.199-4.197
	c0-2.319,1.88-4.198,4.199-4.198C95.595,67.283,97.475,69.162,97.475,71.481"/>
<path fill="#FFFFFF" d="M157.743,225.306c0,2.319-1.88,4.198-4.198,4.198c-2.319,0-4.199-1.879-4.199-4.198
	c0-2.318,1.88-4.198,4.199-4.198C155.863,221.107,157.743,222.987,157.743,225.306"/>
<path fill="#FFFFFF" d="M176.077,29.946c0,2.319-1.88,4.198-4.198,4.198c-2.319,0-4.199-1.879-4.199-4.198
	c0-2.318,1.88-4.197,4.199-4.197C174.197,25.749,176.077,27.628,176.077,29.946"/>
<g>
	<g>
		<defs>
			<rect id="SVGID_17_" x="163.42" y="20.065" width="21.762" height="21.763"/>
		</defs>
		<clipPath id="SVGID_18_">
			<use xlink:href="#SVGID_17_"  overflow="visible"/>
		</clipPath>
		
			<circle clip-path="url(#SVGID_18_)" fill="none" stroke="#EBEEA7" stroke-width="1.228" stroke-miterlimit="10" cx="174.301" cy="30.946" r="10.267"/>
	</g>
</g>
<g>
	<g>
		<defs>
			<rect id="SVGID_19_" x="145.532" y="216.425" width="21.763" height="21.762"/>
		</defs>
		<clipPath id="SVGID_20_">
			<use xlink:href="#SVGID_19_"  overflow="visible"/>
		</clipPath>
		
			<circle clip-path="url(#SVGID_20_)" fill="none" stroke="#EBEEA7" stroke-width="1.228" stroke-miterlimit="10" cx="156.414" cy="227.306" r="10.267"/>
	</g>
</g>
<g>
	<g>
		<defs>
			<rect id="SVGID_21_" x="32.659" y="252.974" width="15.014" height="15.015"/>
		</defs>
		<clipPath id="SVGID_22_">
			<use xlink:href="#SVGID_21_"  overflow="visible"/>
		</clipPath>
		
			<circle clip-path="url(#SVGID_22_)" fill="none" stroke="#EBEEA7" stroke-width="1.228" stroke-miterlimit="10" cx="40.166" cy="260.481" r="6.893"/>
	</g>
</g>
<g>
	<g>
		<defs>
			<rect id="SVGID_23_" x="105.633" y="148.27" width="18.422" height="18.422"/>
		</defs>
		<clipPath id="SVGID_24_">
			<use xlink:href="#SVGID_23_"  overflow="visible"/>
		</clipPath>
		
			<circle clip-path="url(#SVGID_24_)" fill="none" stroke="#EBEEA7" stroke-width="1.228" stroke-miterlimit="10" cx="114.844" cy="157.481" r="8.597"/>
	</g>
</g>
</svg>
