<?xml version="1.0" encoding="utf-8"?>
<!DOCTYPE svg PUBLIC "-//W3C//DTD SVG 1.1//EN" "http://www.w3.org/Graphics/SVG/1.1/DTD/svg11.dtd">
<svg version="1.1" xmlns="http://www.w3.org/2000/svg" xmlns:xlink="http://www.w3.org/1999/xlink" x="0px" y="0px"
	 width="832.02px" height="149.777px" viewBox="0 0 832.02 149.777" enable-background="new 0 0 832.02 149.777"
	 xml:space="preserve">
<g>
	<defs>
		<path id="SVGID_1_" d="M356.507,89.23c0,33.438,27.108,60.547,60.548,60.547c33.44,0,60.548-27.108,60.548-60.547
			c0-33.441-27.107-60.549-60.548-60.549C383.615,28.681,356.507,55.789,356.507,89.23"/>
	</defs>
	<clipPath id="SVGID_2_">
		<use xlink:href="#SVGID_1_"  overflow="visible"/>
	</clipPath>
	
		<linearGradient id="SVGID_3_" gradientUnits="userSpaceOnUse" x1="-82.9448" y1="1030.1152" x2="-81.9448" y2="1030.1152" gradientTransform="matrix(121.096 0 0 -121.096 10400.7891 124832.0391)">
		<stop  offset="0" style="stop-color:#62180D"/>
		<stop  offset="0.2524" style="stop-color:#641A0E"/>
		<stop  offset="0.4543" style="stop-color:#6B2112"/>
		<stop  offset="0.6389" style="stop-color:#762B17"/>
		<stop  offset="0.813" style="stop-color:#883A1D"/>
		<stop  offset="0.9784" style="stop-color:#9F4E23"/>
		<stop  offset="1" style="stop-color:#A35124"/>
	</linearGradient>
	<rect x="356.507" y="28.681" clip-path="url(#SVGID_2_)" fill="url(#SVGID_3_)" width="121.096" height="121.096"/>
</g>
<g>
	<defs>
		<path id="SVGID_4_" d="M406.038,0c-0.792,0-1.435,0.642-1.435,1.435v1.016c0,0.21-0.171,0.381-0.383,0.381
			c-0.232,0-0.42,0.188-0.42,0.42v4.507c0,0.232,0.188,0.42,0.42,0.42h0.096c0.158,0,0.287,0.129,0.287,0.287v25.237
			c0,11.638-11.483,13.573-11.483,27.051v80.189c0,2.656,2.154,4.812,4.812,4.812h26.401c2.657,0,4.812-2.154,4.812-4.812V60.754
			c0-13.478-11.482-15.413-11.482-27.051V8.562c0-0.211,0.171-0.383,0.383-0.383c0.231,0,0.42-0.188,0.42-0.42V3.252
			c0-0.232-0.188-0.42-0.42-0.42c-0.212,0-0.383-0.171-0.383-0.381V1.365c0-0.754-0.611-1.365-1.365-1.365H406.038z"/>
	</defs>
	<clipPath id="SVGID_5_">
		<use xlink:href="#SVGID_4_"  overflow="visible"/>
	</clipPath>
	
		<linearGradient id="SVGID_6_" gradientUnits="userSpaceOnUse" x1="-82.9448" y1="1006.1875" x2="-81.9448" y2="1006.1875" gradientTransform="matrix(27.691 0 0 -27.691 2699.4507 27935.1875)">
		<stop  offset="0" style="stop-color:#62180D"/>
		<stop  offset="0.2524" style="stop-color:#641A0E"/>
		<stop  offset="0.4543" style="stop-color:#6B2112"/>
		<stop  offset="0.6389" style="stop-color:#762B17"/>
		<stop  offset="0.813" style="stop-color:#883A1D"/>
		<stop  offset="0.9784" style="stop-color:#9F4E23"/>
		<stop  offset="1" style="stop-color:#A35124"/>
	</linearGradient>
	<rect x="393.12" clip-path="url(#SVGID_5_)" fill="url(#SVGID_6_)" width="36.025" height="145.756"/>
</g>
<g>
	<defs>
		<path id="SVGID_7_" d="M406.386,1.063V3.41c0,0-0.334,0.797-0.564,1.141c-0.108,0.16-0.165,0.348-0.165,0.54V5.92
			c0,0.193,0.057,0.379,0.164,0.539c0.403,0.602,0.637,1.326,0.637,2.103v25.14c0,6.795-3.275,10.921-6.164,14.559
			c-2.854,3.593-5.317,6.696-5.317,12.492v80.188c0,0.775,0.629,1.405,1.403,1.405h6.886c-0.458,0-0.83-0.63-0.83-1.405V60.753
			c0-5.796,1.457-8.899,3.144-12.492c1.709-3.638,3.646-7.764,3.646-14.559V8.562c0-0.803-0.147-1.547-0.4-2.161
			c-0.048-0.117-0.074-0.243-0.074-0.369V4.98c0-0.127,0.025-0.252,0.074-0.37c0.148-0.359,0.261-0.764,0.327-1.2V1.063H406.386z"/>
	</defs>
	<clipPath id="SVGID_8_">
		<use xlink:href="#SVGID_7_"  overflow="visible"/>
	</clipPath>
	
		<linearGradient id="SVGID_9_" gradientUnits="userSpaceOnUse" x1="-80.6826" y1="996.748" x2="-79.6826" y2="996.748" gradientTransform="matrix(21.165 1.1833 1.1833 -21.165 921.6821 21262.873)">
		<stop  offset="0" style="stop-color:#FFFFFF"/>
		<stop  offset="0.0739" style="stop-color:#FFFFFF"/>
		<stop  offset="0.1465" style="stop-color:#FDF4EC"/>
		<stop  offset="0.4211" style="stop-color:#F7D8BF"/>
		<stop  offset="0.6647" style="stop-color:#F4C6A1"/>
		<stop  offset="0.866" style="stop-color:#F2BA8F"/>
		<stop  offset="1" style="stop-color:#F1B689"/>
	</linearGradient>
	<polygon clip-path="url(#SVGID_8_)" fill="url(#SVGID_9_)" points="395.021,0.269 417.1,1.503 409.182,143.141 387.103,141.906 	
		"/>
</g>
<polygon fill="#CDC2AB" points="418.884,54.523 418.884,39.218 420.263,39.218 420.263,53.144 422.513,53.144 422.513,54.523 "/>
<polygon fill="#CDC2AB" points="423.481,54.523 423.481,39.218 427.203,39.218 427.203,40.529 424.86,40.529 424.86,45.998 
	426.558,45.998 426.558,47.306 424.86,47.306 424.86,53.212 427.203,53.212 427.203,54.523 "/>
<path fill="#CDC2AB" d="M430.146,54.707c-1.426,0-2.276-1.057-2.276-2.596v-2.07h1.334v2.138c0,0.759,0.366,1.332,0.896,1.332
	c0.712,0,0.988-0.481,0.988-1.332c0-1.539-0.528-2.964-1.355-4.687c-0.735-1.518-1.747-3.839-1.747-5.425
	c0-1.768,0.69-3.032,2.321-3.032c1.264,0,2.068,1.057,2.068,2.619v2.229h-1.311v-2.182c0-0.919-0.275-1.356-0.779-1.356
	c-0.599,0-0.966,0.39-0.966,1.217c0,1.793,0.55,2.988,1.492,4.964c0.874,1.861,1.608,3.63,1.608,5.239
	C432.419,54.154,431.064,54.707,430.146,54.707"/>
<path fill="#CDC2AB" d="M411.618,78.578h-2.847V59.804h2.847c1.099,0,2.481,0.564,2.481,2.96v3.918c0,1.099-0.282,1.973-1.184,2.34
	c0.902,0.395,1.184,1.24,1.184,2.368v4.228C414.099,78.014,412.717,78.578,411.618,78.578 M412.407,62.595
	c0-0.762-0.338-1.072-0.817-1.072h-1.1v6.738h0.93c0.592,0,0.987-0.48,0.987-1.241V62.595z M412.407,70.995
	c0-0.761-0.395-1.24-0.987-1.24h-0.93v7.104h1.1c0.479,0,0.817-0.311,0.817-1.072V70.995z"/>
<path fill="#CDC2AB" d="M418.217,78.805c-1.523,0-2.791-1.298-2.791-3.215V62.792c0-1.889,1.268-3.214,2.791-3.214
	c1.521,0,2.79,1.325,2.79,3.214V75.59C421.007,77.507,419.739,78.805,418.217,78.805 M419.316,62.454
	c0-0.62-0.423-1.156-1.099-1.156c-0.705,0-1.101,0.536-1.101,1.156V75.93c0,0.647,0.396,1.154,1.101,1.154
	c0.676,0,1.099-0.507,1.099-1.154V62.454z"/>
<path fill="#CDC2AB" d="M425.125,78.804c-1.55,0-2.706-1.297-2.706-3.214V59.804h1.691V75.76c0,0.873,0.366,1.325,1.043,1.325
	c0.705,0,1.071-0.452,1.071-1.325V59.804h1.606V75.59C427.832,77.507,426.647,78.804,425.125,78.804"/>
<path fill="#CDC2AB" d="M431.95,78.804c-1.521,0-2.734-1.297-2.734-3.214V62.792c0-1.889,1.213-3.214,2.734-3.214
	c1.522,0,2.622,1.325,2.622,3.214v3.58h-1.466v-3.918c0-0.62-0.395-1.156-1.072-1.156c-0.704,0-1.099,0.536-1.099,1.156v13.475
	c0,0.648,0.395,1.156,1.099,1.156c0.678,0,1.072-0.508,1.072-1.156v-3.947h1.466v3.608C434.572,77.507,433.472,78.804,431.95,78.804
	"/>
<polygon fill="#CDC2AB" points="439.845,78.578 439.845,70.122 437.731,70.122 437.731,78.578 436.011,78.578 436.011,59.804 
	437.731,59.804 437.731,68.515 439.845,68.515 439.845,59.804 441.537,59.804 441.537,78.578 "/>
<path fill="#CDC2AB" d="M445.824,78.805c-1.522,0-2.79-1.298-2.79-3.215V62.792c0-1.889,1.268-3.214,2.79-3.214
	s2.791,1.325,2.791,3.214V75.59C448.615,77.507,447.346,78.805,445.824,78.805 M446.923,62.454c0-0.62-0.423-1.156-1.1-1.156
	c-0.704,0-1.1,0.536-1.1,1.156V75.93c0,0.647,0.396,1.154,1.1,1.154c0.677,0,1.1-0.507,1.1-1.154V62.454z"/>
<polygon fill="#CDC2AB" points="454.735,78.578 452.253,68.882 451.69,66.034 451.69,78.578 450.083,78.578 450.083,59.804 
	451.747,59.804 453.888,69.614 454.396,72.518 454.396,59.804 456.003,59.804 456.003,78.578 "/>
<path fill="#CDC2AB" d="M460.008,78.804c-1.748,0-2.791-1.297-2.791-3.185v-2.538h1.635v2.622c0,0.93,0.451,1.635,1.101,1.635
	c0.874,0,1.212-0.592,1.212-1.635c0-1.889-0.648-3.636-1.663-5.751c-0.902-1.86-2.144-4.707-2.144-6.653
	c0-2.17,0.847-3.721,2.848-3.721c1.551,0,2.537,1.297,2.537,3.214v2.735h-1.606v-2.679c0-1.127-0.339-1.663-0.959-1.663
	c-0.733,0-1.184,0.479-1.184,1.494c0,2.199,0.677,3.665,1.833,6.089c1.07,2.284,1.973,4.454,1.973,6.428
	C462.799,78.127,461.136,78.804,460.008,78.804"/>
<path fill="#BC915B" d="M415.71,124.283h-6.014V84.24h6.014c4.027,0,5.65,2.525,5.65,7.877v24.291
	C421.36,121.759,419.737,124.283,415.71,124.283 M417.754,91.457c0-2.586-0.543-3.547-2.044-3.547h-2.347v32.707h2.347
	c1.501,0,2.044-0.964,2.044-3.488V91.457z"/>
<path fill="#BC915B" d="M423.949,93.862v-1.024c0.963,0,1.384-0.841,1.384-2.945h-1.384V84.24h2.946v5.112
	C426.895,92.059,426.173,93.862,423.949,93.862"/>
<path fill="#BC915B" d="M436.938,124.766c-3.247,0-5.953-2.768-5.953-6.854V90.613c0-4.029,2.706-6.852,5.953-6.852
	c3.245,0,5.951,2.822,5.951,6.852v27.298C442.889,121.998,440.183,124.766,436.938,124.766 M439.282,89.893
	c0-1.323-0.902-2.465-2.344-2.465c-1.505,0-2.346,1.142-2.346,2.465v28.74c0,1.383,0.841,2.465,2.346,2.465
	c1.441,0,2.344-1.082,2.344-2.465V89.893z"/>
<path fill="#BC915B" d="M457.081,124.585c-2.102,0-3.004-0.783-3.004-3.728v-11.664c0-1.623-0.844-2.646-2.104-2.646h-2.166v17.735
	h-3.667V84.24h6.072c2.345,0,5.29,1.203,5.29,6.314v9.319c0,2.405-0.601,4.21-2.464,5.051c1.863,0.841,2.586,2.646,2.586,4.989
	v10.884c0,1.081,0.12,1.562,0.78,1.562v2.226H457.081z M453.896,90.193c0-1.623-0.722-2.283-1.743-2.283h-2.347v15.148h2.046
	c1.201,0,2.044-1.021,2.044-2.645V90.193z"/>
<rect x="2.066" y="79.251" transform="matrix(0.7071 -0.7071 0.7071 0.7071 -57.4985 29.6601)" fill="#6E6270" width="9.979" height="9.978"/>
<rect x="324.975" y="79.251" transform="matrix(0.7071 -0.7071 0.7071 0.7071 37.0775 257.9936)" fill="#6E6270" width="9.978" height="9.978"/>
<line fill="none" stroke="#6E6270" stroke-miterlimit="10" x1="7.055" y1="84.24" x2="336.314" y2="84.24"/>
<line fill="none" stroke="#6E6270" stroke-width="0.622" stroke-miterlimit="10" x1="209.069" y1="79.536" x2="330.834" y2="79.536"/>
<line fill="none" stroke="#6E6270" stroke-width="0.622" stroke-miterlimit="10" x1="209.069" y1="88.477" x2="330.834" y2="88.477"/>
<line fill="none" stroke="#6E6270" stroke-width="0.622" stroke-miterlimit="10" x1="503.535" y1="79.536" x2="625.299" y2="79.536"/>
<line fill="none" stroke="#6E6270" stroke-width="0.622" stroke-miterlimit="10" x1="503.535" y1="88.477" x2="625.299" y2="88.477"/>
<rect x="497.066" y="79.251" transform="matrix(0.7071 -0.7071 0.7071 0.7071 87.4817 379.68)" fill="#6E6270" width="9.978" height="9.978"/>
<rect x="819.975" y="79.251" transform="matrix(0.7071 -0.7071 0.7071 0.7071 182.0596 608.0113)" fill="#6E6270" width="9.978" height="9.978"/>
<line fill="none" stroke="#6E6270" stroke-miterlimit="10" x1="502.055" y1="84.24" x2="831.314" y2="84.24"/>
</svg>
