<?xml version="1.0" encoding="utf-8"?>
<!-- Generator: Adobe Illustrator 16.0.0, SVG Export Plug-In . SVG Version: 6.00 Build 0)  -->
<!DOCTYPE svg PUBLIC "-//W3C//DTD SVG 1.1//EN" "http://www.w3.org/Graphics/SVG/1.1/DTD/svg11.dtd">
<svg version="1.1" id="Layer_1" xmlns="http://www.w3.org/2000/svg" xmlns:xlink="http://www.w3.org/1999/xlink" x="0px" y="0px"
	 width="14.792px" height="16.343px" viewBox="0 0 14.792 16.343" enable-background="new 0 0 14.792 16.343" xml:space="preserve">
<path fill="#585857" d="M9.042,10.2c0.12,0.048,0.221,0.049,0.318,0.063c0.146,0.021,0.292,0.053,0.438,0.079
	c0.146,0.026,0.291,0.062,0.438,0.075c0.198,0.02,0.394,0.083,0.596,0.053c0.069-0.011,0.147-0.024,0.199-0.065
	c0.205-0.157,0.351-0.353,0.358-0.629c0.002-0.126,0.033-0.252,0.055-0.378c0.037-0.217,0.084-0.431,0.111-0.647
	c0.014-0.095,0.022-0.184,0.089-0.254c0.176-0.088,0.348-0.175,0.522-0.26c0.281-0.137,0.567-0.266,0.846-0.408
	c0.185-0.094,0.306-0.237,0.285-0.463c-0.006-0.065,0-0.13,0-0.23c-0.31-0.459-0.634-0.939-0.949-1.41
	c0.209-0.42,0.404-0.816,0.603-1.213c0.042-0.084,0.073-0.166,0.093-0.26c0.051-0.251-0.014-0.462-0.217-0.594
	c-0.12-0.077-0.245-0.146-0.374-0.207c-0.366-0.172-0.737-0.337-1.103-0.504c-0.02-0.146-0.034-0.279-0.055-0.412
	c-0.014-0.098-0.033-0.195-0.052-0.293c-0.039-0.215-0.096-0.429-0.114-0.646c-0.021-0.25-0.16-0.413-0.347-0.54
	c-0.103-0.068-0.231-0.112-0.366-0.09C10.181,1.008,9.944,1.05,9.708,1.092c-0.16,0.028-0.32,0.058-0.48,0.081
	C9.087,1.195,8.946,1.209,8.812,1.225C8.479,0.911,8.154,0.604,7.83,0.295C7.793,0.26,7.761,0.22,7.721,0.19
	C7.58,0.077,7.433-0.022,7.236,0.004c-0.064,0.009-0.13,0.002-0.198,0.002C6.959,0.051,6.869,0.086,6.8,0.147
	c-0.195,0.17-0.382,0.349-0.572,0.524C6.027,0.857,5.826,1.041,5.62,1.23C5.535,1.212,5.453,1.196,5.37,1.179
	c-0.201-0.04-0.402-0.08-0.603-0.117C4.586,1.027,4.406,0.988,4.224,0.965C3.965,0.933,3.705,1.109,3.615,1.377
	C3.571,1.51,3.552,1.653,3.527,1.792C3.482,2.035,3.439,2.278,3.399,2.523C3.378,2.656,3.365,2.791,3.345,2.944
	c-0.239,0.11-0.472,0.218-0.704,0.324C2.505,3.332,2.367,3.389,2.234,3.456C2.106,3.52,1.978,3.583,1.86,3.663
	C1.68,3.785,1.6,3.97,1.624,4.182C1.638,4.297,1.695,4.412,1.747,4.52c0.2,0.409,0.406,0.817,0.606,1.218
	C2.189,6.069,2.033,6.39,1.871,6.709C1.772,6.906,1.657,7.094,1.622,7.317c0.01,0.019,0.027,0.037,0.03,0.057
	c0.042,0.261,0.183,0.441,0.424,0.548C2.252,8,2.424,8.085,2.598,8.167c0.149,0.068,0.301,0.13,0.449,0.2
	c0.102,0.047,0.201,0.102,0.296,0.15c0.02,0.158,0.033,0.301,0.057,0.44c0.053,0.313,0.112,0.626,0.169,0.939
	c0.044,0.236,0.158,0.424,0.384,0.529c0.165,0.078,0.338,0.052,0.508,0.033c0.125-0.013,0.248-0.053,0.373-0.072
	c0.225-0.033,0.451-0.058,0.675-0.092c0.118-0.017,0.234-0.046,0.342-0.066c0.11,0.09,0.22,0.171,0.319,0.264
	c0.275,0.254,0.552,0.506,0.816,0.771c0.293,0.296,0.684,0.253,0.963,0.011c0.309-0.271,0.599-0.562,0.896-0.847
	C8.917,10.359,8.976,10.277,9.042,10.2"/>
<path fill="#585857" d="M14.481,13.625c-0.484-0.955-0.967-1.911-1.449-2.867c-0.262-0.517-0.52-1.035-0.78-1.551
	c-0.028-0.057-0.062-0.109-0.104-0.183c-0.027,0.083-0.053,0.141-0.066,0.2c-0.062,0.283-0.111,0.569-0.182,0.85
	c-0.104,0.417-0.319,0.759-0.711,0.968c-0.105,0.057-0.213,0.112-0.314,0.166c-0.059,0-0.115-0.017-0.158,0.003
	c-0.242,0.104-0.479-0.019-0.72-0.007c-0.103-0.07-0.224-0.028-0.335-0.052c-0.15-0.034-0.307-0.054-0.452-0.077
	c-0.337,0.305-0.665,0.604-0.993,0.9c0.203,0.424,0.4,0.844,0.604,1.26c0.489,1,0.983,1.997,1.476,2.996
	c0.018,0.033,0.044,0.062,0.075,0.104c0.495-0.854,0.979-1.689,1.464-2.524c0.169,0.02,0.33,0.018,0.479,0.061
	c0.101,0.03,0.201,0.007,0.295,0.035c0.262,0.075,0.535,0.067,0.799,0.122c0.145,0.029,0.297,0.03,0.445,0.049
	c0.111,0.014,0.224,0.033,0.336,0.052c0.146,0.024,0.291,0.053,0.438,0.073c0.045,0.006,0.093-0.009,0.165-0.019
	C14.681,13.986,14.575,13.808,14.481,13.625"/>
<path fill="#585857" d="M5.277,11.12c-0.176,0.021-0.351,0.04-0.524,0.082C4.63,11.23,4.5,11.245,4.373,11.249
	c-0.281,0.009-0.551-0.028-0.804-0.17c-0.446-0.249-0.728-0.605-0.78-1.125C2.777,9.827,2.754,9.701,2.733,9.575
	C2.705,9.408,2.674,9.241,2.641,9.054C2.62,9.051,2.582,9.044,2.53,9.036c-0.285,0.569-0.565,1.132-0.846,1.692
	c-0.282,0.562-0.568,1.122-0.845,1.687c-0.276,0.56-0.565,1.113-0.839,1.69c0.126,0.021,0.218-0.003,0.317-0.021
	c0.258-0.047,0.522-0.063,0.782-0.097c0.154-0.021,0.306-0.057,0.46-0.079c0.14-0.021,0.282-0.031,0.423-0.051
	c0.175-0.023,0.35-0.054,0.525-0.076c0.146-0.02,0.292-0.034,0.433-0.05c0.492,0.874,0.977,1.735,1.471,2.611
	c0.032-0.045,0.057-0.07,0.071-0.101c0.063-0.137,0.118-0.275,0.183-0.409c0.38-0.775,0.761-1.55,1.143-2.324
	c0.247-0.5,0.498-0.997,0.756-1.514c-0.326-0.305-0.656-0.613-0.992-0.926C5.472,11.086,5.375,11.107,5.277,11.12"/>
</svg>
