<?xml version="1.0" encoding="utf-8"?>
<!DOCTYPE svg PUBLIC "-//W3C//DTD SVG 1.1//EN" "http://www.w3.org/Graphics/SVG/1.1/DTD/svg11.dtd">
<svg version="1.1" xmlns="http://www.w3.org/2000/svg" xmlns:xlink="http://www.w3.org/1999/xlink" x="0px" y="0px"
	 width="60.482px" height="54.917px" viewBox="0 0 60.482 54.917" enable-background="new 0 0 60.482 54.917" xml:space="preserve">
<path fill="#F04D5D" d="M30.41,54.917c-0.479-0.081-0.696-0.461-1.026-0.678c-0.474-0.31-0.905-0.686-1.351-1.039
	c-0.245-0.193-0.481-0.396-0.72-0.597c-0.663-0.556-1.32-1.118-1.989-1.667c-0.466-0.383-0.95-0.744-1.421-1.121
	c-0.257-0.207-0.506-0.423-0.754-0.639c-0.575-0.501-1.147-1.006-1.721-1.509c-0.561-0.491-1.104-1.006-1.688-1.468
	c-0.904-0.715-1.758-1.487-2.527-2.34c-1.666-1.847-3.495-3.529-5.221-5.315c-0.508-0.526-1.015-1.056-1.495-1.606
	c-0.407-0.468-0.78-0.966-1.16-1.457c-0.591-0.764-1.181-1.529-1.761-2.301c-0.632-0.84-1.285-1.667-1.87-2.539
	c-0.555-0.826-1.025-1.711-1.55-2.559c-0.501-0.809-0.959-1.64-1.346-2.507c-0.498-1.113-0.939-2.252-1.444-3.361
	c-0.523-1.15-0.705-2.391-1.041-3.591C0.067,17.701-0.001,16.758,0,15.803c0.001-0.99,0.059-1.97,0.205-2.952
	c0.123-0.832,0.281-1.655,0.441-2.479c0.039-0.199,0.131-0.389,0.21-0.579c0.32-0.76,0.642-1.518,0.967-2.276
	c0.221-0.515,0.623-0.908,0.933-1.363c0.271-0.398,0.57-0.777,0.857-1.164C3.634,4.962,3.657,4.936,3.68,4.909
	C4.443,4.005,5.26,3.16,6.271,2.524c0.189-0.119,0.354-0.277,0.54-0.403c0.947-0.638,1.973-1.12,3.044-1.513
	c0.466-0.171,0.916-0.385,1.417-0.446c0.374-0.047,0.747-0.142,1.121-0.149c1.051-0.021,2.103-0.01,3.154-0.009
	c0.797,0.001,1.576,0.116,2.349,0.309c0.763,0.192,1.523,0.386,2.273,0.626c1.35,0.432,2.646,0.988,3.873,1.69
	c0.866,0.495,1.703,1.039,2.494,1.654c0.761,0.592,1.547,1.151,2.32,1.727c0.207,0.155,0.412,0.314,0.611,0.48
	c0.292,0.245,0.577,0.499,0.883,0.764c0.536-0.498,1.068-0.995,1.602-1.489c0.737-0.681,1.551-1.265,2.374-1.836
	c0.367-0.256,0.723-0.528,1.091-0.782c0.212-0.146,0.435-0.28,0.661-0.403c1.335-0.724,2.736-1.304,4.146-1.855
	c0.539-0.21,1.117-0.314,1.682-0.456c0.348-0.088,0.699-0.165,1.053-0.229c0.421-0.076,0.845-0.173,1.27-0.188
	c0.857-0.031,1.717-0.001,2.575-0.015c1.151-0.019,2.261,0.181,3.341,0.568c0.774,0.277,1.553,0.538,2.328,0.812
	c0.146,0.052,0.287,0.122,0.42,0.203c0.689,0.422,1.438,0.766,1.983,1.393c0.147,0.169,0.265,0.366,0.425,0.521
	c0.286,0.278,0.596,0.53,0.893,0.798c0.388,0.351,0.725,0.747,1.026,1.175c0.238,0.338,0.488,0.667,0.731,1.001
	c0.102,0.139,0.213,0.274,0.297,0.424c0.227,0.406,0.42,0.832,0.664,1.228c0.421,0.686,0.584,1.467,0.816,2.217
	c0.271,0.88,0.459,1.786,0.68,2.683c0.037,0.149,0.068,0.304,0.068,0.456c0.006,1.384,0.01,2.769,0,4.153
	c0,0.22-0.07,0.439-0.1,0.66c-0.104,0.8-0.316,1.575-0.531,2.351c-0.234,0.852-0.666,1.618-1.012,2.421
	c-0.34,0.789-0.674,1.581-1.021,2.366c-0.643,1.453-1.332,2.878-2.263,4.177c-0.711,0.993-1.389,2.01-2.08,3.019
	c-0.329,0.483-0.645,0.976-0.985,1.452c-0.209,0.295-0.453,0.565-0.682,0.848c-0.598,0.737-1.193,1.477-1.797,2.211
	c-0.23,0.282-0.467,0.559-0.716,0.825c-0.644,0.688-1.293,1.37-1.942,2.051c-0.809,0.847-1.607,1.7-2.432,2.529
	c-0.59,0.594-1.186,1.187-1.833,1.714c-0.476,0.388-0.881,0.842-1.334,1.249c-0.595,0.533-1.195,1.058-1.793,1.587
	c-0.052,0.046-0.099,0.1-0.149,0.146c-0.511,0.476-1.008,0.965-1.533,1.42c-0.547,0.477-1.123,0.92-1.684,1.38
	c-0.79,0.646-1.568,1.305-2.367,1.937c-0.88,0.694-1.779,1.362-2.666,2.047c-0.246,0.191-0.473,0.407-0.716,0.602
	C30.694,54.739,30.532,54.835,30.41,54.917"/>
</svg>
