<?xml version="1.0" encoding="utf-8"?>
<!-- Generator: Adobe Illustrator 16.0.0, SVG Export Plug-In . SVG Version: 6.00 Build 0)  -->
<!DOCTYPE svg PUBLIC "-//W3C//DTD SVG 1.1//EN" "http://www.w3.org/Graphics/SVG/1.1/DTD/svg11.dtd">
<svg version="1.1" id="Layer_1" xmlns="http://www.w3.org/2000/svg" xmlns:xlink="http://www.w3.org/1999/xlink" x="0px" y="0px"
	 width="17.358px" height="13.212px" viewBox="0 0 17.358 13.212" enable-background="new 0 0 17.358 13.212" xml:space="preserve">
<path fill="#F04D5D" d="M17.358,9.091c0,1.096-2.182,1.983-4.872,1.983c-2.69,0-4.872-0.888-4.872-1.983
	c0-1.095,2.182-1.982,4.872-1.982C15.176,7.108,17.358,7.996,17.358,9.091"/>
<path fill="#F04D5D" d="M7.614,11.229c0,1.095,2.181,1.983,4.873,1.983c2.689,0,4.871-0.889,4.871-1.983v-1.18
	c0,0.865-2.182,1.715-4.871,1.715c-2.691,0-4.873-0.85-4.873-1.715V11.229z"/>
<path fill="#F04D5D" d="M4.872,3.968c2.691,0,4.872-0.889,4.872-1.983C9.744,0.889,7.563,0,4.872,0C2.181,0,0,0.889,0,1.984
	C0,3.079,2.181,3.968,4.872,3.968"/>
<path fill="#F04D5D" d="M9.74,7.56c0.001,0,0.003-0.001,0.004-0.001V7.51C9.744,7.526,9.742,7.543,9.74,7.56"/>
<path fill="#F04D5D" d="M4.872,6.153c2.691,0,4.872-0.889,4.872-1.983V2.99c0,0.865-2.181,1.715-4.872,1.715
	C2.181,4.705,0,3.855,0,2.99v1.18C0,5.265,2.181,6.153,4.872,6.153"/>
<path fill="#F04D5D" d="M4.872,8.416c1.157,0,2.219-0.165,3.055-0.438c0.333-0.272,0.795-0.511,1.353-0.7
	c0.297-0.256,0.464-0.542,0.464-0.845v-1.18c0,0.865-2.181,1.715-4.872,1.715C2.181,6.968,0,6.118,0,5.253v1.18
	C0,7.528,2.181,8.416,4.872,8.416"/>
<path fill="#F04D5D" d="M7.349,9.525c0,0.178,0.08,0.354,0.227,0.523C7.429,9.846,7.349,9.63,7.349,9.405
	c0-0.159,0.041-0.315,0.118-0.465C6.715,9.117,5.826,9.224,4.872,9.224C2.181,9.224,0,8.374,0,7.51v1.179
	c0,1.097,2.181,1.984,4.872,1.984c0.904,0,1.751-0.101,2.477-0.276V9.525z"/>
</svg>
